<?xml version="1.0" encoding="utf-8"?>
<!-- Generator: Adobe Illustrator 27.1.1, SVG Export Plug-In . SVG Version: 6.00 Build 0)  -->
<svg version="1.1" xmlns="http://www.w3.org/2000/svg" xmlns:xlink="http://www.w3.org/1999/xlink" x="0px" y="0px"
	 viewBox="0 0 2010 2295" style="enable-background:new 0 0 2010 2295;" xml:space="preserve">
<style type="text/css">
	.st0{fill:#E5CDAB;}
	.st1{fill:#D9AE7C;}
	.st2{fill:#4564A5;}
	.st3{fill:#FFFFFF;}
	.st4{fill:#CECECE;}
	.st5{fill:none;}
	.st6{fill:#49230E;}
	.st7{fill:#897E48;}
	.st8{fill:#7B7136;}
	.st9{fill:#BA5B2F;}
</style>
<g id="Layer_3">
</g>
<g id="shoes">
</g>
<g id="aceitunas">
</g>
<g id="jeans">
</g>
<g id="hoodie">
</g>
<g id="plant">
</g>
<g id="hair">
</g>
<g id="outline">
</g>
<g id="Layer_9">
	<g>
		<rect x="806.2" y="636.75" class="st0" width="576" height="630"/>
		<polyline class="st1" points="1499.2,663.77 1499.2,780.75 914.2,780.75 914.2,996.79 914.2,1275.75 598.68,1275.75 
			500.39,1177.46 356.2,951.75 365.2,726.75 896.2,357.75 1337.2,483.75 1499.2,663.77 		"/>
		<polyline class="st0" points="1472.2,978.75 1508.2,1005.75 1484.15,1144.15 1416.1,1233.27 1310.2,1230.75 1310.2,978.75 
			1472.2,978.75 		"/>
		<polyline class="st0" points="437.2,1517.07 437.2,1624.46 527.2,1624.46 527.2,1518.75 437.2,1517.07 		"/>
		<rect x="1382.2" y="1473.75" class="st0" width="117" height="108"/>
		<rect x="927.7" y="987.75" class="st2" width="63" height="108"/>
		<rect x="545.2" y="1941.75" class="st3" width="153" height="117"/>
		<rect x="1085.2" y="1941.75" class="st3" width="135" height="99"/>
		<rect x="1094.2" y="2031.75" class="st4" width="198" height="72"/>
		<rect x="554.2" y="2031.75" class="st4" width="225" height="72"/>
		<rect x="1076.2" y="2031.75" class="st5" width="207" height="72"/>
		<rect x="1355.2" y="780.75" class="st6" width="108" height="171"/>
		<rect x="761.2" y="780.75" class="st6" width="144" height="189"/>
		<polyline class="st2" points="545.2,1608.75 545.2,1986.75 689.2,1986.75 713.32,1800.87 781.37,1722.28 1073.24,1727.65 
			1094.2,1761.75 1094.2,2004.75 1220.2,1986.75 1239.93,1800.87 1307.98,1711.75 1328.2,1545.75 		"/>
		<polyline class="st7" points="564.66,1227.82 1380.06,1227.82 1449.11,1351.29 1449.11,1477.56 1364.2,1482.75 1344.02,1585.48 
			1319.2,1635.75 554.2,1635.75 554.2,1410.75 598.68,1345.84 598.68,1272.37 		"/>
		<polyline class="st8" points="566.86,1271.72 464.2,1390.4 464.2,1516.67 545.2,1518.75 554.2,1410.75 617.2,1329.75 
			617.2,1248.75 		"/>
		<polygon points="1481.2,411.75 1427.2,375.81 1337.2,303.81 1175.2,231.81 819.7,231.81 702.7,267.77 630.7,303.77 630.7,311.93 
			554.2,339.73 518.2,393.71 482.2,429.75 446.2,465.75 410.2,501.79 374.2,537.75 338.2,582.75 320.2,609.75 311.2,807.75 
			335.67,795.52 320.2,1500.75 358.18,1554.75 419.2,1579.46 437.2,1517.07 464.2,1390.4 590.2,1248.75 536.2,1185.75 
			495.03,1025.12 426.98,936.01 428.2,771.75 533.04,775.46 554.2,816.71 653.2,816.75 671.16,726.75 707.2,645.79 734.23,618.75 
			770.2,618.75 770.2,582.76 797.2,555.75 869.2,519.75 945.7,483.75 986.2,483.75 986.2,464.69 1022.2,447.75 1022.2,411.71 
			1103.2,447.75 1148.2,483.79 1220.2,519.83 1310.2,555.79 1400.2,627.79 1499.2,663.77 		"/>
		<rect x="711.7" y="191.25" width="490.5" height="45"/>
		<rect x="630.7" y="227.25" width="189" height="45"/>
		<rect x="549.7" y="272.25" width="189" height="45"/>
		<rect x="522.7" y="299.25" width="189" height="45"/>
		<rect x="477.7" y="344.25" width="189" height="45"/>
		<rect x="441.7" y="380.25" width="189" height="45"/>
		<rect x="405.7" y="425.25" width="189" height="45"/>
		<rect x="369.7" y="461.25" width="189" height="45"/>
		<rect x="333.7" y="542.25" width="189" height="45"/>
		<rect x="288.7" y="623.25" width="112.5" height="904.5"/>
		<rect x="369.7" y="497.25" width="189" height="45"/>
		<rect x="333.7" y="587.25" width="189" height="45"/>
		<polygon points="1520.19,1144.15 1484.15,1144.15 1481.2,978.71 1520.19,978.75 		"/>
		<rect x="1380.06" y="1233.27" width="36.04" height="73.47"/>
		<rect x="1344.02" y="1459.21" width="36.04" height="126.27"/>
		<rect x="1416.1" y="1306.74" width="34.02" height="44.56"/>
		<rect x="1416.1" y="1188.71" width="34.02" height="44.56"/>
		<rect x="1450.12" y="1144.15" width="34.02" height="44.56"/>
		<rect x="1449.11" y="1351.29" width="36.04" height="126.27"/>
		<rect x="1307.98" y="1585.48" width="36.04" height="126.27"/>
		<rect x="1203.89" y="1800.87" width="36.04" height="253.42"/>
		<rect x="1073.24" y="1727.65" width="36.04" height="371.2"/>
		<rect x="1239.93" y="1756.31" width="34.02" height="44.56"/>
		<rect x="1282.31" y="2054.29" width="34.02" height="44.56"/>
		<rect x="1273.95" y="1711.75" width="34.02" height="44.56"/>
		
			<rect x="1260.11" y="1998.07" transform="matrix(-1.836970e-16 1 -1 -1.836970e-16 3314.4019 758.1382)" width="36.04" height="76.41"/>
		
			<rect x="909.29" y="1563.69" transform="matrix(-1.836970e-16 1 -1 -1.836970e-16 2636.9375 782.3205)" width="36.04" height="291.87"/>
		<rect x="677.28" y="1800.87" width="36.04" height="253.42"/>
		<rect x="713.32" y="1756.31" width="34.02" height="44.56"/>
		<rect x="755.71" y="2054.29" width="34.02" height="44.56"/>
		<rect x="747.35" y="1722.28" width="34.02" height="34.02"/>
		
			<rect x="733.51" y="1998.07" transform="matrix(-1.836970e-16 1 -1 -1.836970e-16 2787.7976 1284.7426)" width="36.04" height="76.41"/>
		
			<rect x="494.6" y="1023.33" transform="matrix(-1 -4.486956e-11 4.486956e-11 -1 1025.2297 2206.5913)" width="36.04" height="159.93"/>
		
			<rect x="598.68" y="1272.37" transform="matrix(-1 -4.484425e-11 4.484425e-11 -1 1233.4086 2618.217)" width="36.04" height="73.47"/>
		
			<rect x="564.66" y="1345.84" transform="matrix(-1 -4.490687e-11 4.490687e-11 -1 1163.344 2736.2429)" width="34.02" height="44.56"/>
		
			<rect x="564.66" y="1227.82" transform="matrix(-1 -4.493351e-11 4.493351e-11 -1 1163.344 2500.1912)" width="34.02" height="44.56"/>
		
			<rect x="530.63" y="1183.26" transform="matrix(-1 -4.490687e-11 4.490687e-11 -1 1095.2943 2411.0752)" width="34.02" height="44.56"/>
		<polygon points="527.2,2085.75 565.67,2085.75 565.67,1390.4 529.63,1390.4 		"/>
		
			<rect x="464.66" y="1345.84" transform="matrix(-1 -4.490687e-11 4.490687e-11 -1 963.3441 2736.2429)" width="34.02" height="44.56"/>
		
			<rect x="435.74" y="1390.4" transform="matrix(-1 -5.687285e-11 5.687285e-11 -1 899.9379 2907.0708)" width="28.47" height="126.27"/>
		<rect x="498.81" y="1301.01" width="34.02" height="44.56"/>
		<rect x="532.84" y="1271.72" width="34.02" height="29.29"/>
		
			<rect x="390.94" y="771.75" transform="matrix(-1 -4.608104e-11 4.608104e-11 -1 817.9142 1707.7572)" width="36.04" height="164.26"/>
		
			<rect x="461" y="980.57" transform="matrix(-1 -4.490687e-11 4.490687e-11 -1 956.0284 2005.6886)" width="34.02" height="44.56"/>
		
			<rect x="426.98" y="936.01" transform="matrix(-1 -4.490687e-11 4.490687e-11 -1 887.9787 1916.5725)" width="34.02" height="44.56"/>
		<rect x="532.75" y="775.46" width="36.04" height="113.29"/>
		
			<rect x="443.88" y="686.3" transform="matrix(-1.836970e-16 1 -1 -1.836970e-16 1219.3373 295.5364)" width="36.04" height="142.27"/>
		
			<rect x="635.2" y="724.49" transform="matrix(-1 -3.328638e-11 3.328638e-11 -1 1306.4429 1568.2428)" width="36.04" height="119.26"/>
		<rect x="671.16" y="645.75" transform="matrix(-1 -2.245993e-11 2.245993e-11 -1 1378.3635 1372.5)" width="36.04" height="81"/>
		
			<rect x="594.68" y="776.23" transform="matrix(3.273121e-11 -1 1 3.273121e-11 -222.0286 1447.4318)" width="36.04" height="117"/>
		<rect x="761.16" y="555.75" transform="matrix(-1 -1.496504e-11 1.496504e-11 -1 1558.3635 1165.5)" width="36.04" height="54"/>
		
			<rect x="734.18" y="582.77" transform="matrix(-1.836970e-16 1 -1 -1.836970e-16 1379.9714 -124.4318)" width="36.04" height="90"/>
		<rect x="815.18" y="501.73" transform="matrix(2.026474e-11 -1 1 2.026474e-11 295.4714 1370.9318)" width="36.04" height="72"/>
		<rect x="909.68" y="443.23" transform="matrix(3.273121e-11 -1 1 3.273121e-11 425.9714 1429.4318)" width="36.04" height="117"/>
		<rect x="986.18" y="447.77" transform="matrix(1.027096e-11 -1 1 1.027096e-11 538.4318 1469.9714)" width="36.04" height="36"/>
		<rect x="1044.68" y="389.23" transform="matrix(2.273743e-11 -1 1 2.273743e-11 632.9714 1492.4318)" width="36.04" height="81"/>
		
			<rect x="1436.18" y="591.73" transform="matrix(-5.382824e-11 1 -1 -5.382824e-11 2099.9319 -808.4714)" width="36.04" height="108"/>
		<rect x="1314.68" y="551.27" transform="matrix(1.526785e-11 -1 1 1.526785e-11 758.9318 1906.4714)" width="36.04" height="45"/>
		<rect x="1247.18" y="492.77" transform="matrix(9.412976e-12 -1 1 9.412976e-12 727.4318 1802.9714)" width="36.04" height="90"/>
		<rect x="1166.18" y="465.81" transform="matrix(6.965101e-11 -1 1 6.965101e-11 682.3922 1686.0111)" width="36.04" height="72"/>
		<rect x="1107.68" y="443.27" transform="matrix(1.218942e-11 -1 1 1.218942e-11 659.9318 1591.4714)" width="36.04" height="45"/>
		<rect x="1359.68" y="587.27" transform="matrix(1.526785e-11 -1 1 1.526785e-11 767.9318 1987.4714)" width="36.04" height="45"/>
		<rect x="648.68" y="249.75" transform="matrix(1.996187e-11 -1 1 1.996187e-11 380.9516 952.4516)" width="36.04" height="72"/>
		<rect x="743.18" y="191.25" transform="matrix(3.273121e-11 -1 1 3.273121e-11 511.4516 1010.9516)" width="36.04" height="117"/>
		
			<rect x="1436.18" y="366.73" transform="matrix(-2.692709e-11 1 -1 -2.692709e-11 1847.9318 -1060.4714)" width="36.04" height="54"/>
		<rect x="1341.68" y="299.29" transform="matrix(1.554496e-11 -1 1 1.554496e-11 1037.912 1681.4912)" width="36.04" height="45"/>
		<rect x="1274.18" y="240.79" transform="matrix(9.160734e-12 -1 1 9.160734e-12 1006.412 1577.9912)" width="36.04" height="90"/>
		<rect x="1193.18" y="213.83" transform="matrix(6.937390e-11 -1 1 6.937390e-11 961.3723 1461.0309)" width="36.04" height="72"/>
		<rect x="1134.68" y="191.29" transform="matrix(1.221429e-11 -1 1 1.221429e-11 938.912 1366.4912)" width="36.04" height="45"/>
		<rect x="1386.68" y="335.29" transform="matrix(1.554496e-11 -1 1 1.554496e-11 1046.912 1762.4912)" width="36.04" height="45"/>
		<rect x="1481.2" y="411.75" width="36.04" height="252"/>
		
			<rect x="1508.18" y="618.75" transform="matrix(-2.690133e-11 1 -1 -2.690133e-11 2171.9517 -880.4516)" width="36.04" height="54"/>
		
			<rect x="302.2" y="679.49" transform="matrix(-1 -2.378236e-10 2.378236e-10 -1 640.4429 2207.2427)" width="36.04" height="848.26"/>
		<rect x="403.18" y="1517.07" width="34.02" height="136.68"/>
		
			<rect x="338.2" y="1527.75" transform="matrix(-1 -2.829571e-11 2.829571e-11 -1 730.4032 3084.7898)" width="54" height="29.29"/>
		
			<rect x="365.2" y="1579.46" transform="matrix(-1 -2.829571e-11 2.829571e-11 -1 784.4032 3188.2102)" width="54" height="29.29"/>
		<rect x="358.18" y="1554.75" width="34.02" height="54"/>
		
			<rect x="437.2" y="1624.46" transform="matrix(-1 -1.697721e-11 1.697721e-11 -1 964.4032 3278.2102)" width="90" height="29.29"/>
		<rect x="752.2" y="762.75" transform="matrix(-1 -6.561342e-11 6.561342e-11 -1 1540.4429 1759.5)" width="36.04" height="234"/>
		<rect x="896.16" y="762.75" transform="matrix(-1 -6.561342e-11 6.561342e-11 -1 1828.3635 1759.5)" width="36.04" height="234"/>
		
			<rect x="824.18" y="627.77" transform="matrix(-1.836970e-16 1 -1 -1.836970e-16 1586.9705 -97.4322)" width="36.04" height="234"/>
		
			<rect x="801.68" y="641.23" transform="matrix(-1.836970e-16 1 -1 -1.836970e-16 1600.4308 -38.9719)" width="36.04" height="279"/>
		
			<rect x="824.18" y="897.77" transform="matrix(-1.836970e-16 1 -1 -1.836970e-16 1820.9714 136.5682)" width="36.04" height="162"/>
		
			<rect x="743.18" y="834.73" transform="matrix(-1.836970e-16 1 -1 -1.836970e-16 1622.9318 100.5286)" width="36.04" height="54"/>
		<rect x="1445.16" y="744.71" width="36.04" height="234"/>
		<rect x="1337.2" y="744.71" width="36.04" height="234"/>
		
			<rect x="1394.08" y="624.83" transform="matrix(-3.911556e-11 1 -1 -3.911556e-11 2138.8347 -685.3745)" width="36.04" height="203.81"/>
		
			<rect x="1413.68" y="641.19" transform="matrix(-3.911556e-11 1 -1 -3.911556e-11 2194.3918 -669.0108)" width="36.04" height="243"/>
		
			<rect x="1373.18" y="879.73" transform="matrix(-4.466756e-11 1 -1 -4.466756e-11 2351.9324 -430.4706)" width="36.04" height="162"/>
		
			<rect x="1310.18" y="816.73" transform="matrix(-4.466756e-11 1 -1 -4.466756e-11 2171.9319 -484.4714)" width="36.04" height="54"/>
		
			<rect x="1413.84" y="1541.12" transform="matrix(-1.836970e-16 1 -1 -1.836970e-16 3040.5864 167.9136)" width="45" height="126.27"/>
		<rect x="554.2" y="1986.75" width="135" height="27"/>
		<rect x="1085.2" y="1986.75" width="135" height="27"/>
		
			<rect x="518.16" y="339.73" transform="matrix(-1 -1.496504e-11 1.496504e-11 -1 1072.3635 733.4604)" width="36.04" height="54"/>
		<rect x="482.18" y="393.73" transform="matrix(-1.836970e-16 1 -1 -1.836970e-16 911.9318 -88.4714)" width="36.04" height="36"/>
		<rect x="576.68" y="281.21" transform="matrix(2.276319e-11 -1 1 2.276319e-11 272.9912 916.412)" width="36.04" height="81"/>
		<path d="M293.2,654.79"/>
		<rect x="446.18" y="429.77" transform="matrix(-1.836970e-16 1 -1 -1.836970e-16 911.9714 -16.4318)" width="36.04" height="36"/>
		<rect x="410.18" y="465.77" transform="matrix(-1.836970e-16 1 -1 -1.836970e-16 911.9714 55.5682)" width="36.04" height="36"/>
		<rect x="374.18" y="501.81" transform="matrix(-1.836970e-16 1 -1 -1.836970e-16 912.011 127.6079)" width="36.04" height="36"/>
		<rect x="315.7" y="560.25" transform="matrix(-1.836970e-16 1 -1 -1.836970e-16 934.4516 222.0484)" width="81" height="36"/>
		<rect x="266.2" y="618.75" transform="matrix(-1.836970e-16 1 -1 -1.836970e-16 956.9516 316.5484)" width="108" height="36"/>
		<path d="M635.2,321.75"/>
		<rect x="1481.9" y="1476" class="st9" width="189" height="81"/>
		<rect x="1499.9" y="1548" class="st9" width="144" height="135"/>
		
			<rect x="1597.94" y="1602.44" transform="matrix(-1 -3.257851e-11 3.257851e-11 -1 3319.9355 3249.4419)" class="st7" width="124.06" height="44.56"/>
		
			<rect x="1562.9" y="1476.17" transform="matrix(-1 5.050371e-14 -5.050371e-14 -1 3161.8459 3078.6143)" class="st7" width="36.04" height="126.27"/>
		
			<rect x="1596" y="1557.61" transform="matrix(-1 -2.755408e-11 2.755408e-11 -1 3280.0645 3159.7866)" class="st7" width="88.06" height="44.56"/>
		
			<rect x="1569" y="1521.17" transform="matrix(-1 -2.367230e-11 2.367230e-11 -1 3210 3086.9026)" class="st7" width="72" height="44.56"/>
	</g>
	<rect x="1497" y="1197" class="st3" width="225" height="279"/>
</g>
</svg>
